<?xml version="1.0" encoding="utf-8"?>
<svg version="1.1" xmlns="http://www.w3.org/2000/svg" xmlns:xlink="http://www.w3.org/1999/xlink" x="0px" y="0px" viewBox="0 0 256 256" enable-background="new 0 0 256 256" xml:space="preserve">
<g><path fill="#0081FF" d="M118.3,10.1c-17.8,2.1-28.3,5-42.5,11.9C52.5,33.4,33.4,52.5,22,75.8c-5.8,11.9-9.1,22.3-11,35.1c-1.3,8.1-1.3,26,0,34.1c3.8,25,14.8,47.1,32.2,65c20.1,20.7,45.4,32.8,74.2,35.6c7.3,0.7,20.7,0.3,27.9-0.8c24.4-3.7,47-14.9,64.7-32.2c10.3-10,17.7-20,23.8-32.6c4.4-8.9,6.5-14.6,8.7-23.2c2.3-9.1,3.1-15.3,3.5-25.1c0.5-16.5-2.2-32.4-8.1-47.2c-14-35.3-44.7-62.1-81.1-71.2c-9.8-2.4-15.4-3.1-26.7-3.3C124.6,9.9,119.2,10,118.3,10.1z M191.2,76.3c5.9,1.8,10.2,7.6,10.3,13.8c0,1.7-0.4,4.3-0.8,5.7c-0.8,2.4-2.9,4.6-40.3,42.1c-29.2,29.3-40.1,39.9-41.8,40.8c-2,1.1-3,1.2-6.2,1.3c-7.1,0-5.8,1.1-31.8-24.9c-15.8-15.8-23.5-23.8-24.4-25.4c-3.2-5.9-2.1-13.4,2.6-17.9c2.9-2.8,5.5-3.9,10-4c6.8-0.3,6.9-0.2,25.8,18.7c10.1,10,16.7,16.3,17.3,16.3c0.6,0,12.8-11.9,32.9-31.8c17.6-17.5,32.6-32.3,33.4-32.9C181.7,75.7,186.7,75,191.2,76.3z"/></g>
</svg>