<?xml version="1.0" encoding="utf-8"?>
<svg version="1.1" xmlns="http://www.w3.org/2000/svg" xmlns:xlink="http://www.w3.org/1999/xlink" x="0px" y="0px" viewBox="0 0 256 256" enable-background="new 0 0 256 256" xml:space="preserve">
<g><path fill="#ccc" d="M117.7,10c-12.8,1.5-20.2,3.2-30.6,7c-34.7,12.6-62,41.7-72.5,77.3C11,106.3,10,113.8,10,127.9c0,12.8,0.5,17.5,3,27.7c8.7,35.7,34.4,66.3,67.8,80.7c26.7,11.4,56,12.9,83.3,4.1c36.1-11.6,64.6-40.2,76.2-76.2c3.5-11.1,5.1-20,5.5-32.1c2.1-59.6-40-110.8-99.3-120.9c-4.3-0.7-8.6-1-16.5-1.2C124.2,9.9,118.6,9.9,117.7,10z M142.5,23.2c38.9,5.2,72.4,32.7,85.2,69.9c4.2,12.3,5.7,21.6,5.7,34.8c0,17.2-3.2,31.1-10.7,46.4c-15.6,31.8-45.1,53.1-80.5,58.3c-7.1,1.1-21.5,1.1-28.7,0c-35.1-5.2-64.4-26.2-80.1-57.4c-5.3-10.5-8.7-21.2-10.4-33.1c-1-7.1-1-21.5,0-28.7c3.5-23.5,13.6-43.8,30.1-60.3C77,29.5,109,18.7,142.5,23.2z"/></g>
</svg>