<?xml version="1.0" encoding="utf-8"?>
<!-- Svg Vector Icons : http://www.onlinewebfonts.com/icon -->
<!DOCTYPE svg PUBLIC "-//W3C//DTD SVG 1.1//EN" "http://www.w3.org/Graphics/SVG/1.1/DTD/svg11.dtd">
<svg version="1.1" xmlns="http://www.w3.org/2000/svg" xmlns:xlink="http://www.w3.org/1999/xlink" x="0px" y="0px" viewBox="0 0 256 256" enable-background="new 0 0 256 256" xml:space="preserve">
<metadata> Svg Vector Icons : http://www.onlinewebfonts.com/icon </metadata>
<g><g><g><path fill="#000000" d="M22.6,10.3c-3.1,0.6-5.3,1.6-7.6,3.7c-2.5,2.3-4,5.2-4.6,9c-0.3,1.9-0.4,42-0.3,107c0.1,99.7,0.2,104.1,1,106.2c1.1,2.9,4.3,6.4,7.1,7.8c1.2,0.6,3.5,1.3,5.1,1.5c1.9,0.3,42,0.4,107,0.3l104-0.1l2.9-1.3c5-2.3,7.8-6.1,8.7-11.7c0.3-1.8,0.4-20,0.3-48.2l-0.1-45.2l-1.5-3.2c-5.4-10.9-20.7-11-26.4-0.2l-1.1,2l-0.2,36.5l-0.2,36.5l-1,1.6c-0.6,0.9-1.7,2.1-2.6,2.6c-1.5,0.9-2.4,0.9-84.7,0.9c-82.3,0-83.2,0-84.7-0.9c-0.8-0.5-2-1.7-2.6-2.6l-1-1.6v-83.2c0-82.3,0-83.2,0.9-84.7c0.5-0.8,1.7-2,2.6-2.6l1.6-1l65.8-0.2c74.1-0.3,67.2,0.1,71.6-4c3.1-3,4.5-6,4.5-10.5c0-6-3-10.9-8.6-13.5l-2.6-1.2l-75.4,0C58.7,10,23.8,10.2,22.6,10.3z"/><path fill="#000000" d="M209.8,55.3c-0.7,0.5-19.4,18.5-41.4,40.1s-40.2,39.2-40.3,39.2c-0.1,0-8.5-8.1-18.6-17.8c-10.2-10-18.9-18.2-19.7-18.5c-2.1-0.9-4.3-0.8-6.1,0.1c-0.8,0.5-4.2,3.5-7.5,6.7c-5,4.8-6.2,6.2-6.7,7.8c-1.2,4.1-1.9,3.2,26.7,31.2c14.4,14.1,27,26.1,28,26.8c2.2,1.5,5.3,1.6,7.5,0.2c2.2-1.3,98.2-95.3,98.9-96.7c0.7-1.6,0.7-4.2-0.1-5.8c-0.9-1.7-11.9-12.5-13.7-13.4C214.7,54.2,211.5,54.2,209.8,55.3z"/></g></g></g>
</svg>