<?xml version="1.0" encoding="utf-8"?>
<svg version="1.1" xmlns="http://www.w3.org/2000/svg" xmlns:xlink="http://www.w3.org/1999/xlink" x="0px" y="0px" viewBox="0 0 256 256" enable-background="new 0 0 256 256" xml:space="preserve">
<g><g><path fill="#000000" d="M128,10C62.8,10,10,62.8,10,128c0,65.2,52.8,118,118,118c65.1,0,118-52.8,118-118C246,62.8,193.1,10,128,10z M193.7,93.3L130,183.1c-2.9,4-8.3,5.2-13.2,3.4c-0.2,0-0.4-0.1-0.6-0.2c-0.4-0.1-0.7-0.3-1-0.5c-0.6-0.3-1.1-0.6-1.7-1c0,0,0,0,0,0c0,0,0,0-0.1,0c-0.4-0.3-0.8-0.5-1.1-0.8l-47.6-42.5c-5.2-4.6-5.6-12.4-1-17.6c4.6-5.2,12.4-5.6,17.6-1l37.3,33.3l54.8-77.3c3.5-4.9,10.9-5.8,16.5-1.8C195.5,81.1,197.2,88.4,193.7,93.3z"/></g></g>
</svg>