<?xml version="1.0" encoding="utf-8"?>
<svg version="1.1" xmlns="http://www.w3.org/2000/svg" xmlns:xlink="http://www.w3.org/1999/xlink" x="0px" y="0px" viewBox="0 0 256 256" enable-background="new 0 0 256 256" xml:space="preserve">
<g><path fill="#0081FF" d="M115.8,10.6c-22.1,2.3-45.2,11.9-62.3,25.9c-4.8,4-14,13.2-17.7,17.9c-4.7,5.8-9.9,14.1-13.6,21.7C-6.6,134.4,17.5,205,76.1,233.9c39.7,19.6,87.3,15.2,122.8-11.5c5.4-4,15.5-13.8,20.3-19.5c11.2-13.4,20.2-31.8,24.1-49.2c11.8-53.1-14.4-107.4-63.3-131.5C160.3,12.5,137.4,8.3,115.8,10.6z M187.5,84.2c3.5,2.6,4.8,6.6,3.6,10.4c-0.5,1.4-11.1,12.4-38.8,40.1c-41.5,41.4-39.3,39.4-44.6,38.5c-1.8-0.3-4.7-3-22.4-20.6c-21.9-21.9-21.6-21.5-20.6-26.6c0.5-2.8,3.9-6.2,6.7-6.7c5-1,5.1-0.9,22.4,16.3l16,16l33.9-33.9c18.6-18.7,34.5-34.2,35.3-34.5C181.2,82.4,185.7,82.9,187.5,84.2z"/></g>
</svg>